<?xml version="1.0" encoding="UTF-8"?>
<svg width="185px" height="185px" viewBox="0 0 185 185" version="1.1" xmlns="http://www.w3.org/2000/svg" xmlns:xlink="http://www.w3.org/1999/xlink">
    <!-- Generator: Sketch 48.2 (47327) - http://www.bohemiancoding.com/sketch -->
    <title>checkout-icon</title>
    <desc>Created with Sketch.</desc>
    <defs></defs>
    <g id="Metchant-Front-Landing-Page" stroke="none" stroke-width="1" fill="none" fill-rule="evenodd">
        <g id="checkout-icon">
            <g id="Group-4" transform="translate(12.248980, 7.281702)">
                <g id="cart-shopping-insert-add-item-3895effa63a3751b" transform="translate(0.881130, 36.016153)">
                    <polygon id="Path-2" fill="#ECF3FF" points="33.5913755 19.4310591 125.153059 19.4310591 127.524689 23.3527962 127.524689 28.4112309 125.153059 37.6304538 111.979003 71.3966343 105.852887 73.7451933 90.2368692 73.7451933 45.9559161 73.7451933 30.4611598 19.4310591"></polygon>
                    <path d="M128.969223,21.1958674 C127.25918,18.9835209 124.595561,17.7136538 121.665581,17.7136538 L32.961753,17.7136538 C32.8978262,17.7136538 32.849881,17.7434163 32.7859542,17.7483767 L29.6269025,6.29973125 C28.6040729,2.58933836 25.013515,0 20.9008879,0 L3.62465743,0 C2.15433995,0 0.961038801,1.1111337 0.961038801,2.48020915 C0.961038801,3.84928461 2.15433995,4.96041831 3.62465743,4.96041831 L20.9008879,4.96041831 C22.5789676,4.96041831 24.0439578,6.01698741 24.4648096,7.53487541 L48.0005438,92.8937536 C49.0233733,96.6041465 52.608604,99.1984453 56.7212312,99.1984453 L114.063613,99.1984453 C115.53393,99.1984453 116.727232,98.0873116 116.727232,96.7182362 C116.727232,95.3491607 115.53393,94.238027 114.063613,94.238027 L56.7212312,94.238027 C55.0431514,94.238027 53.5781612,93.1764975 53.1626367,91.6635699 L48.7943021,75.8249543 L106.866515,75.8249543 C110.750071,75.8249543 114.180812,73.5183597 115.411404,70.0907107 L130.210469,28.7555449 C131.137408,26.1662066 130.684593,23.4131744 128.969223,21.1958674 Z M106.871843,70.8645359 L47.4252022,70.8645359 L34.1390724,22.6740721 L121.665581,22.6740721 C122.864209,22.6740721 123.950965,23.1899556 124.648833,24.0977121 C125.346702,25.0054687 125.533155,26.1265232 125.154921,27.1830923 L122.203632,35.432268 L73.3848293,35.432268 C71.9145118,35.432268 70.7212107,36.5434017 70.7212107,37.9124771 C70.7212107,39.2815526 71.9145118,40.3926863 73.3848293,40.3926863 L120.429662,40.3926863 L115.864219,53.1459217 L79.7295689,53.1459217 C78.2592514,53.1459217 77.0659503,54.2570555 77.0659503,55.6261309 C77.0659503,56.9952064 78.2592514,58.1063401 79.7295689,58.1063401 L114.084922,58.1063401 L110.355856,68.5182581 C109.860423,69.9270169 108.454032,70.8645359 106.871843,70.8645359 Z" id="Shape" fill="#68A5FC" fill-rule="nonzero"></path>
                    <path d="M57.5309712,106.296804 C50.8186523,106.296804 45.3529069,111.381233 45.3529069,117.63136 C45.3529069,123.886447 50.8133251,128.970876 57.5309712,128.970876 C64.2486174,128.970876 69.7090356,123.886447 69.7090356,117.63136 C69.7090356,111.381233 64.2486174,106.296804 57.5309712,106.296804 Z M57.5309712,124.010458 C53.75396,124.010458 50.6801441,121.148296 50.6801441,117.63136 C50.6801441,114.114423 53.75396,111.257222 57.5309712,111.257222 C61.3079825,111.257222 64.3817983,114.114423 64.3817983,117.63136 C64.3817983,121.148296 61.3079825,124.010458 57.5309712,124.010458 Z" id="Shape" fill="#68A5FC" fill-rule="nonzero"></path>
                    <path d="M108.267579,106.296804 C101.55526,106.296804 96.0895145,111.381233 96.0895145,117.63136 C96.0895145,123.886447 101.549933,128.970876 108.267579,128.970876 C114.985225,128.970876 120.445643,123.886447 120.445643,117.63136 C120.445643,111.381233 114.985225,106.296804 108.267579,106.296804 Z M108.267579,124.010458 C104.490568,124.010458 101.416752,121.148296 101.416752,117.63136 C101.416752,114.114423 104.490568,111.257222 108.267579,111.257222 C112.04459,111.257222 115.118406,114.114423 115.118406,117.63136 C115.118406,121.148296 112.04459,124.010458 108.267579,124.010458 Z" id="Shape" fill="#68A5FC" fill-rule="nonzero"></path>
                </g>
                <g id="Group-11" transform="translate(44.087543, 0.033490)">
                    <ellipse id="Oval-2" fill="#68A5FC" cx="33.6533652" cy="32.5218974" rx="33.0419136" ry="31.6377061"></ellipse>
                    <path d="M27.1477545,44.3201948 L18.0992938,35.2218491 C17.1221275,34.1135852 17.4137431,32.0303513 18.0992938,31.2520215 C18.7848445,30.4736917 21.5090908,30.1437575 22.4852466,31.2520215 L28.9161526,38.5544027 L44.1755881,21.0053523 C45.1507334,19.8970883 45.9271329,19.2508568 47.0509069,20.1397297 C48.1746809,21.0286027 49.6464929,23.1110478 48.6703371,24.2204591 L30.6835402,44.3201948 C30.2146621,44.8525286 29.5790493,45.1519664 28.9161526,45.1519664 C28.2532559,45.1519664 27.6166326,44.8525286 27.1477545,44.3201948 Z" id="Fill-102" fill="#FFFFFF"></path>
                </g>
            </g>
        </g>
    </g>
</svg>